<?xml version="1.0" encoding="UTF-8" standalone="no"?>
<svg
   xmlns:dc="http://purl.org/dc/elements/1.1/"
   xmlns:cc="http://creativecommons.org/ns#"
   xmlns:rdf="http://www.w3.org/1999/02/22-rdf-syntax-ns#"
   xmlns:svg="http://www.w3.org/2000/svg"
   xmlns="http://www.w3.org/2000/svg"
   height="121.6"
   width="845.59998"
   xml:space="preserve"
   viewBox="0 0 845.59998 121.6"
   y="0px"
   x="0px"
   id="Layer_1"
   version="1.1"><metadata
     id="metadata23"><rdf:RDF><cc:Work
         rdf:about=""><dc:format>image/svg+xml</dc:format><dc:type
           rdf:resource="http://purl.org/dc/dcmitype/StillImage" /><dc:title></dc:title></cc:Work></rdf:RDF></metadata><defs
     id="defs21" /><style
     id="style3"
     type="text/css">
	.st0{fill:#FF5500;}
	.st1{fill:#FFFFFF;}
</style><g
     transform="translate(-217.2,-339.2)"
     id="g3372"><g
       id="g5"><polygon
         style="fill:#ff5500"
         class="st0"
         points="272.4,458.2 309,458.2 364.2,342 322.5,342 290.7,415.2 258.9,342 217.2,342 "
         id="polygon7" /><path
         style="fill:#ff5500"
         class="st0"
         d="m 758.5,339.2 c -16.7,0 -31,9 -36.2,20 l 0,-17.3 -37.9,0 0,116.1 39.1,0 0,-66.1 c 0,-12.9 7.9,-20 20,-20 13.1,0 19.1,8.3 19.1,20.3 l 0,65.9 39.1,0 0,-72.1 c 0,-27.7 -14.3,-46.8 -43.2,-46.8 z"
         id="path9" /><path
         style="fill:#ff5500"
         class="st0"
         d="m 919.6,359.2 c -5.5,-11.7 -19.8,-20 -37.9,-20 -34.8,0 -60.1,26.3 -60.1,60.8 0,34.5 25.3,60.8 60.1,60.8 18.1,0 31.9,-9 38.6,-20 l 0,17.3 37.7,0 0,-116.1 -38.4,0 0,17.2 z m -30,70.3 c -16.9,0 -28.8,-12.7 -28.8,-29.5 0,-16.8 11.9,-29.5 28.8,-29.5 17.2,0 29.3,12.4 29.3,29.5 0,17 -12.2,29.5 -29.3,29.5 z"
         id="path11" /><path
         style="fill:#ff5500"
         class="st0"
         d="m 617.4,359.2 c -5.5,-11.7 -19.8,-20 -37.9,-20 -34.8,0 -60.1,26.3 -60.1,60.8 0,34.5 25.3,60.8 60.1,60.8 18.1,0 31.9,-9 38.6,-20 l 0,17.2 37.7,0 0,-116.1 -38.4,0 0,17.3 z m -30,70.3 c -16.9,0 -28.8,-12.7 -28.8,-29.5 0,-16.8 11.9,-29.5 28.8,-29.5 17.2,0 29.3,12.4 29.3,29.5 0,17 -12.2,29.5 -29.3,29.5 z"
         id="path13" /><path
         style="fill:#ff5500"
         class="st0"
         d="m 459.9,359.2 c -5.5,-11.7 -19.8,-20 -37.9,-20 -34.8,0 -60.1,26.3 -60.1,60.8 0,34.5 25.3,60.8 60.1,60.8 18.1,0 31.9,-9 38.6,-20 l 0,17.3 37.7,0 0,-116.1 -38.4,0 0,17.2 z m -30,70.3 c -16.9,0 -28.8,-12.7 -28.8,-29.5 0,-16.8 11.9,-29.5 28.8,-29.5 17.2,0 29.3,12.4 29.3,29.5 0,17 -12.2,29.5 -29.3,29.5 z"
         id="path15" /><polygon
         style="fill:#ff5500"
         class="st0"
         points="1020.8,458.3 1021.3,457.8 1045.8,433.3 1062.8,416.3 1037.8,391.3 1020.8,408.3 1004.3,391.8 979.3,416.8 "
         id="polygon17" /></g></g></svg>